<mxfile host="app.diagrams.net" modified="2024-05-13T03:57:30.271Z" agent="Mozilla/5.0 (Windows NT 10.0; Win64; x64; rv:125.0) Gecko/20100101 Firefox/125.0" etag="aJsBkFKaKYDNTqj9ftXU" version="24.4.0" type="github">
  <diagram name="Page-1" id="z3FNkRx8i-oTFvDtVT5w">
    <mxGraphModel dx="1062" dy="579" grid="1" gridSize="10" guides="1" tooltips="1" connect="1" arrows="1" fold="1" page="1" pageScale="1" pageWidth="850" pageHeight="1100" math="0" shadow="0">
      <root>
        <mxCell id="0" />
        <mxCell id="1" parent="0" />
        <mxCell id="wkgdSi7BzmKG_JM9T2ZL-1" value="" style="ellipse;whiteSpace=wrap;html=1;aspect=fixed;strokeColor=#000000;fillColor=#000000;" vertex="1" parent="1">
          <mxGeometry x="210" y="290" width="20" height="20" as="geometry" />
        </mxCell>
        <mxCell id="wkgdSi7BzmKG_JM9T2ZL-2" value="" style="endArrow=none;html=1;rounded=0;strokeColor=#000000;" edge="1" parent="1" source="wkgdSi7BzmKG_JM9T2ZL-4" target="wkgdSi7BzmKG_JM9T2ZL-1">
          <mxGeometry width="50" height="50" relative="1" as="geometry">
            <mxPoint x="167" y="333" as="sourcePoint" />
            <mxPoint x="350" y="330" as="targetPoint" />
          </mxGeometry>
        </mxCell>
        <mxCell id="wkgdSi7BzmKG_JM9T2ZL-3" value="" style="endArrow=none;html=1;rounded=0;strokeColor=#000000;" edge="1" parent="1" source="wkgdSi7BzmKG_JM9T2ZL-5" target="wkgdSi7BzmKG_JM9T2ZL-1">
          <mxGeometry width="50" height="50" relative="1" as="geometry">
            <mxPoint x="260" y="370" as="sourcePoint" />
            <mxPoint x="270" y="280" as="targetPoint" />
          </mxGeometry>
        </mxCell>
        <mxCell id="wkgdSi7BzmKG_JM9T2ZL-4" value="" style="ellipse;whiteSpace=wrap;html=1;aspect=fixed;strokeColor=#000000;" vertex="1" parent="1">
          <mxGeometry x="140" y="330" width="20" height="20" as="geometry" />
        </mxCell>
        <mxCell id="wkgdSi7BzmKG_JM9T2ZL-5" value="" style="ellipse;whiteSpace=wrap;html=1;aspect=fixed;strokeColor=#000000;" vertex="1" parent="1">
          <mxGeometry x="280" y="330" width="20" height="20" as="geometry" />
        </mxCell>
        <mxCell id="wkgdSi7BzmKG_JM9T2ZL-6" value="" style="endArrow=none;html=1;rounded=0;strokeColor=#000000;endFill=0;" edge="1" parent="1" source="wkgdSi7BzmKG_JM9T2ZL-7" target="wkgdSi7BzmKG_JM9T2ZL-1">
          <mxGeometry width="50" height="50" relative="1" as="geometry">
            <mxPoint x="200" y="340" as="sourcePoint" />
            <mxPoint x="330" y="330" as="targetPoint" />
          </mxGeometry>
        </mxCell>
        <mxCell id="wkgdSi7BzmKG_JM9T2ZL-7" value="" style="ellipse;whiteSpace=wrap;html=1;aspect=fixed;strokeColor=#000000;" vertex="1" parent="1">
          <mxGeometry x="210" y="330" width="20" height="20" as="geometry" />
        </mxCell>
        <mxCell id="wkgdSi7BzmKG_JM9T2ZL-8" value="" style="endArrow=none;html=1;rounded=0;strokeColor=#000000;" edge="1" parent="1" source="wkgdSi7BzmKG_JM9T2ZL-9" target="wkgdSi7BzmKG_JM9T2ZL-4">
          <mxGeometry width="50" height="50" relative="1" as="geometry">
            <mxPoint x="127" y="385" as="sourcePoint" />
            <mxPoint x="154" y="350" as="targetPoint" />
          </mxGeometry>
        </mxCell>
        <mxCell id="wkgdSi7BzmKG_JM9T2ZL-9" value="" style="ellipse;whiteSpace=wrap;html=1;aspect=fixed;strokeColor=#000000;fillColor=#000000;" vertex="1" parent="1">
          <mxGeometry x="120" y="362" width="20" height="20" as="geometry" />
        </mxCell>
        <mxCell id="wkgdSi7BzmKG_JM9T2ZL-10" value="" style="endArrow=none;html=1;rounded=0;strokeColor=#000000;" edge="1" parent="1" source="wkgdSi7BzmKG_JM9T2ZL-11" target="wkgdSi7BzmKG_JM9T2ZL-4">
          <mxGeometry width="50" height="50" relative="1" as="geometry">
            <mxPoint x="160" y="392" as="sourcePoint" />
            <mxPoint x="210" y="390" as="targetPoint" />
          </mxGeometry>
        </mxCell>
        <mxCell id="wkgdSi7BzmKG_JM9T2ZL-11" value="" style="ellipse;whiteSpace=wrap;html=1;aspect=fixed;strokeColor=#000000;fillColor=#000000;" vertex="1" parent="1">
          <mxGeometry x="160" y="362" width="20" height="20" as="geometry" />
        </mxCell>
        <mxCell id="wkgdSi7BzmKG_JM9T2ZL-12" value="" style="endArrow=none;html=1;rounded=0;strokeColor=#000000;endFill=0;" edge="1" parent="1" source="wkgdSi7BzmKG_JM9T2ZL-13" target="wkgdSi7BzmKG_JM9T2ZL-7">
          <mxGeometry width="50" height="50" relative="1" as="geometry">
            <mxPoint x="200" y="392" as="sourcePoint" />
            <mxPoint x="170" y="360" as="targetPoint" />
          </mxGeometry>
        </mxCell>
        <mxCell id="wkgdSi7BzmKG_JM9T2ZL-13" value="" style="ellipse;whiteSpace=wrap;html=1;aspect=fixed;strokeColor=#000000;fillColor=#000000;" vertex="1" parent="1">
          <mxGeometry x="190" y="362" width="20" height="20" as="geometry" />
        </mxCell>
        <mxCell id="wkgdSi7BzmKG_JM9T2ZL-14" value="" style="endArrow=none;html=1;rounded=0;strokeColor=#000000;startArrow=none;startFill=0;endFill=0;" edge="1" parent="1" source="wkgdSi7BzmKG_JM9T2ZL-15" target="wkgdSi7BzmKG_JM9T2ZL-13">
          <mxGeometry width="50" height="50" relative="1" as="geometry">
            <mxPoint x="167" y="430" as="sourcePoint" />
            <mxPoint x="203" y="382" as="targetPoint" />
          </mxGeometry>
        </mxCell>
        <mxCell id="wkgdSi7BzmKG_JM9T2ZL-15" value="" style="ellipse;whiteSpace=wrap;html=1;aspect=fixed;strokeColor=#000000;" vertex="1" parent="1">
          <mxGeometry x="170" y="400" width="20" height="20" as="geometry" />
        </mxCell>
        <mxCell id="wkgdSi7BzmKG_JM9T2ZL-18" value="" style="endArrow=none;html=1;rounded=0;strokeColor=#000000;startArrow=none;startFill=0;endFill=0;" edge="1" parent="1" source="wkgdSi7BzmKG_JM9T2ZL-19" target="wkgdSi7BzmKG_JM9T2ZL-5">
          <mxGeometry width="50" height="50" relative="1" as="geometry">
            <mxPoint x="269.99966025158943" y="364.68616146931015" as="sourcePoint" />
            <mxPoint x="238.18" y="391" as="targetPoint" />
          </mxGeometry>
        </mxCell>
        <mxCell id="wkgdSi7BzmKG_JM9T2ZL-19" value="" style="ellipse;whiteSpace=wrap;html=1;aspect=fixed;strokeColor=#000000;fillColor=#000000;" vertex="1" parent="1">
          <mxGeometry x="260" y="362" width="20" height="20" as="geometry" />
        </mxCell>
        <mxCell id="wkgdSi7BzmKG_JM9T2ZL-23" value="" style="endArrow=none;html=1;rounded=0;strokeColor=#000000;" edge="1" parent="1" source="wkgdSi7BzmKG_JM9T2ZL-24" target="wkgdSi7BzmKG_JM9T2ZL-5">
          <mxGeometry width="50" height="50" relative="1" as="geometry">
            <mxPoint x="323.18" y="370" as="sourcePoint" />
            <mxPoint x="279.18" y="348" as="targetPoint" />
          </mxGeometry>
        </mxCell>
        <mxCell id="wkgdSi7BzmKG_JM9T2ZL-24" value="" style="ellipse;whiteSpace=wrap;html=1;aspect=fixed;strokeColor=#000000;fillColor=#000000;" vertex="1" parent="1">
          <mxGeometry x="300" y="362" width="20" height="20" as="geometry" />
        </mxCell>
        <mxCell id="wkgdSi7BzmKG_JM9T2ZL-25" value="" style="endArrow=none;html=1;rounded=0;strokeColor=#000000;startArrow=none;startFill=0;endFill=0;" edge="1" parent="1" source="wkgdSi7BzmKG_JM9T2ZL-26" target="wkgdSi7BzmKG_JM9T2ZL-24">
          <mxGeometry width="50" height="50" relative="1" as="geometry">
            <mxPoint x="290.18" y="431" as="sourcePoint" />
            <mxPoint x="318.18" y="382" as="targetPoint" />
          </mxGeometry>
        </mxCell>
        <mxCell id="wkgdSi7BzmKG_JM9T2ZL-26" value="" style="ellipse;whiteSpace=wrap;html=1;aspect=fixed;strokeColor=#000000;" vertex="1" parent="1">
          <mxGeometry x="280" y="400" width="20" height="20" as="geometry" />
        </mxCell>
        <mxCell id="wkgdSi7BzmKG_JM9T2ZL-27" value="" style="endArrow=none;html=1;rounded=0;strokeColor=#000000;" edge="1" parent="1" source="wkgdSi7BzmKG_JM9T2ZL-28" target="wkgdSi7BzmKG_JM9T2ZL-24">
          <mxGeometry width="50" height="50" relative="1" as="geometry">
            <mxPoint x="323.18" y="438" as="sourcePoint" />
            <mxPoint x="328.18" y="382" as="targetPoint" />
          </mxGeometry>
        </mxCell>
        <mxCell id="wkgdSi7BzmKG_JM9T2ZL-28" value="" style="ellipse;whiteSpace=wrap;html=1;aspect=fixed;strokeColor=#000000;" vertex="1" parent="1">
          <mxGeometry x="320" y="400" width="20" height="20" as="geometry" />
        </mxCell>
        <mxCell id="wkgdSi7BzmKG_JM9T2ZL-29" value="" style="endArrow=none;html=1;rounded=0;strokeColor=#000000;startArrow=none;startFill=0;endFill=0;" edge="1" parent="1" source="wkgdSi7BzmKG_JM9T2ZL-30" target="wkgdSi7BzmKG_JM9T2ZL-9">
          <mxGeometry width="50" height="50" relative="1" as="geometry">
            <mxPoint x="130" y="400" as="sourcePoint" />
            <mxPoint x="296" y="389" as="targetPoint" />
          </mxGeometry>
        </mxCell>
        <mxCell id="wkgdSi7BzmKG_JM9T2ZL-30" value="" style="ellipse;whiteSpace=wrap;html=1;aspect=fixed;strokeColor=#000000;" vertex="1" parent="1">
          <mxGeometry x="100" y="400" width="20" height="20" as="geometry" />
        </mxCell>
        <mxCell id="wkgdSi7BzmKG_JM9T2ZL-32" value="" style="endArrow=none;html=1;rounded=0;strokeColor=#000000;startArrow=none;startFill=0;endFill=0;" edge="1" parent="1" source="wkgdSi7BzmKG_JM9T2ZL-33" target="wkgdSi7BzmKG_JM9T2ZL-9">
          <mxGeometry width="50" height="50" relative="1" as="geometry">
            <mxPoint x="140" y="400" as="sourcePoint" />
            <mxPoint x="135" y="391" as="targetPoint" />
          </mxGeometry>
        </mxCell>
        <mxCell id="wkgdSi7BzmKG_JM9T2ZL-33" value="" style="ellipse;whiteSpace=wrap;html=1;aspect=fixed;strokeColor=#000000;" vertex="1" parent="1">
          <mxGeometry x="140" y="400" width="20" height="20" as="geometry" />
        </mxCell>
        <mxCell id="wkgdSi7BzmKG_JM9T2ZL-34" value="" style="endArrow=none;html=1;rounded=0;strokeColor=#000000;endFill=0;" edge="1" parent="1" source="wkgdSi7BzmKG_JM9T2ZL-35" target="wkgdSi7BzmKG_JM9T2ZL-7">
          <mxGeometry width="50" height="50" relative="1" as="geometry">
            <mxPoint x="210" y="402" as="sourcePoint" />
            <mxPoint x="225" y="358" as="targetPoint" />
          </mxGeometry>
        </mxCell>
        <mxCell id="wkgdSi7BzmKG_JM9T2ZL-35" value="" style="ellipse;whiteSpace=wrap;html=1;aspect=fixed;strokeColor=#000000;fillColor=#000000;" vertex="1" parent="1">
          <mxGeometry x="230" y="362" width="20" height="20" as="geometry" />
        </mxCell>
        <mxCell id="wkgdSi7BzmKG_JM9T2ZL-36" value="" style="endArrow=none;html=1;rounded=0;strokeColor=#000000;startArrow=none;startFill=0;endFill=0;" edge="1" parent="1" source="wkgdSi7BzmKG_JM9T2ZL-37" target="wkgdSi7BzmKG_JM9T2ZL-35">
          <mxGeometry width="50" height="50" relative="1" as="geometry">
            <mxPoint x="177" y="440" as="sourcePoint" />
            <mxPoint x="213" y="392" as="targetPoint" />
          </mxGeometry>
        </mxCell>
        <mxCell id="wkgdSi7BzmKG_JM9T2ZL-37" value="" style="ellipse;whiteSpace=wrap;html=1;aspect=fixed;strokeColor=#000000;" vertex="1" parent="1">
          <mxGeometry x="210" y="400" width="20" height="20" as="geometry" />
        </mxCell>
        <mxCell id="wkgdSi7BzmKG_JM9T2ZL-38" value="" style="endArrow=none;html=1;rounded=0;strokeColor=#000000;" edge="1" parent="1" source="wkgdSi7BzmKG_JM9T2ZL-39" target="wkgdSi7BzmKG_JM9T2ZL-35">
          <mxGeometry width="50" height="50" relative="1" as="geometry">
            <mxPoint x="210" y="447" as="sourcePoint" />
            <mxPoint x="220" y="395" as="targetPoint" />
          </mxGeometry>
        </mxCell>
        <mxCell id="wkgdSi7BzmKG_JM9T2ZL-39" value="" style="ellipse;whiteSpace=wrap;html=1;aspect=fixed;strokeColor=#000000;" vertex="1" parent="1">
          <mxGeometry x="250" y="400" width="20" height="20" as="geometry" />
        </mxCell>
        <mxCell id="wkgdSi7BzmKG_JM9T2ZL-41" value="" style="ellipse;whiteSpace=wrap;html=1;aspect=fixed;strokeColor=#000000;fillColor=#000000;" vertex="1" parent="1">
          <mxGeometry x="480" y="290" width="20" height="20" as="geometry" />
        </mxCell>
        <mxCell id="wkgdSi7BzmKG_JM9T2ZL-42" value="" style="endArrow=none;html=1;rounded=0;strokeColor=#000000;" edge="1" parent="1" source="wkgdSi7BzmKG_JM9T2ZL-44" target="wkgdSi7BzmKG_JM9T2ZL-41">
          <mxGeometry width="50" height="50" relative="1" as="geometry">
            <mxPoint x="437" y="333" as="sourcePoint" />
            <mxPoint x="620" y="330" as="targetPoint" />
          </mxGeometry>
        </mxCell>
        <mxCell id="wkgdSi7BzmKG_JM9T2ZL-43" value="" style="endArrow=none;html=1;rounded=0;strokeColor=#000000;" edge="1" parent="1" source="wkgdSi7BzmKG_JM9T2ZL-45" target="wkgdSi7BzmKG_JM9T2ZL-41">
          <mxGeometry width="50" height="50" relative="1" as="geometry">
            <mxPoint x="530" y="370" as="sourcePoint" />
            <mxPoint x="540" y="280" as="targetPoint" />
          </mxGeometry>
        </mxCell>
        <mxCell id="wkgdSi7BzmKG_JM9T2ZL-44" value="E" style="ellipse;whiteSpace=wrap;html=1;aspect=fixed;strokeColor=#000000;fillColor=#000000;fontColor=#FFFFFF;" vertex="1" parent="1">
          <mxGeometry x="410" y="330" width="20" height="20" as="geometry" />
        </mxCell>
        <mxCell id="wkgdSi7BzmKG_JM9T2ZL-45" value="&lt;div&gt;&lt;br&gt;&lt;/div&gt;" style="ellipse;whiteSpace=wrap;html=1;aspect=fixed;strokeColor=#000000;fillColor=#171717;" vertex="1" parent="1">
          <mxGeometry x="553.18" y="330" width="20" height="20" as="geometry" />
        </mxCell>
        <mxCell id="wkgdSi7BzmKG_JM9T2ZL-46" value="" style="endArrow=none;html=1;rounded=0;strokeColor=#000000;endFill=0;" edge="1" parent="1" source="wkgdSi7BzmKG_JM9T2ZL-47" target="wkgdSi7BzmKG_JM9T2ZL-41">
          <mxGeometry width="50" height="50" relative="1" as="geometry">
            <mxPoint x="470" y="340" as="sourcePoint" />
            <mxPoint x="600" y="330" as="targetPoint" />
          </mxGeometry>
        </mxCell>
        <mxCell id="wkgdSi7BzmKG_JM9T2ZL-47" value="" style="ellipse;whiteSpace=wrap;html=1;aspect=fixed;strokeColor=#000000;fillColor=#000000;" vertex="1" parent="1">
          <mxGeometry x="480" y="330" width="20" height="20" as="geometry" />
        </mxCell>
        <mxCell id="wkgdSi7BzmKG_JM9T2ZL-48" value="" style="endArrow=none;html=1;rounded=0;strokeColor=#000000;" edge="1" parent="1" source="wkgdSi7BzmKG_JM9T2ZL-49" target="wkgdSi7BzmKG_JM9T2ZL-44">
          <mxGeometry width="50" height="50" relative="1" as="geometry">
            <mxPoint x="397" y="385" as="sourcePoint" />
            <mxPoint x="424" y="350" as="targetPoint" />
          </mxGeometry>
        </mxCell>
        <mxCell id="wkgdSi7BzmKG_JM9T2ZL-49" value="E" style="ellipse;whiteSpace=wrap;html=1;aspect=fixed;strokeColor=#000000;fillColor=#FFFFFF;" vertex="1" parent="1">
          <mxGeometry x="390" y="362" width="20" height="20" as="geometry" />
        </mxCell>
        <mxCell id="wkgdSi7BzmKG_JM9T2ZL-50" value="" style="endArrow=none;html=1;rounded=0;strokeColor=#000000;" edge="1" parent="1" source="wkgdSi7BzmKG_JM9T2ZL-51" target="wkgdSi7BzmKG_JM9T2ZL-44">
          <mxGeometry width="50" height="50" relative="1" as="geometry">
            <mxPoint x="430" y="392" as="sourcePoint" />
            <mxPoint x="480" y="390" as="targetPoint" />
          </mxGeometry>
        </mxCell>
        <mxCell id="wkgdSi7BzmKG_JM9T2ZL-51" value="" style="ellipse;whiteSpace=wrap;html=1;aspect=fixed;strokeColor=#000000;fillColor=#FFFFFF;" vertex="1" parent="1">
          <mxGeometry x="430" y="362" width="20" height="20" as="geometry" />
        </mxCell>
        <mxCell id="wkgdSi7BzmKG_JM9T2ZL-52" value="" style="endArrow=none;html=1;rounded=0;strokeColor=#000000;endFill=0;" edge="1" parent="1" source="wkgdSi7BzmKG_JM9T2ZL-53" target="wkgdSi7BzmKG_JM9T2ZL-47">
          <mxGeometry width="50" height="50" relative="1" as="geometry">
            <mxPoint x="470" y="392" as="sourcePoint" />
            <mxPoint x="440" y="360" as="targetPoint" />
          </mxGeometry>
        </mxCell>
        <mxCell id="wkgdSi7BzmKG_JM9T2ZL-53" value="E" style="ellipse;whiteSpace=wrap;html=1;aspect=fixed;strokeColor=#000000;fillColor=#000000;fontColor=#FFFFFF;" vertex="1" parent="1">
          <mxGeometry x="460" y="362" width="20" height="20" as="geometry" />
        </mxCell>
        <mxCell id="wkgdSi7BzmKG_JM9T2ZL-54" value="" style="endArrow=none;html=1;rounded=0;strokeColor=#000000;startArrow=none;startFill=0;endFill=0;" edge="1" parent="1" source="wkgdSi7BzmKG_JM9T2ZL-55" target="wkgdSi7BzmKG_JM9T2ZL-53">
          <mxGeometry width="50" height="50" relative="1" as="geometry">
            <mxPoint x="437" y="430" as="sourcePoint" />
            <mxPoint x="473" y="382" as="targetPoint" />
          </mxGeometry>
        </mxCell>
        <mxCell id="wkgdSi7BzmKG_JM9T2ZL-55" value="" style="ellipse;whiteSpace=wrap;html=1;aspect=fixed;strokeColor=#000000;" vertex="1" parent="1">
          <mxGeometry x="440" y="400" width="20" height="20" as="geometry" />
        </mxCell>
        <mxCell id="wkgdSi7BzmKG_JM9T2ZL-58" value="" style="endArrow=none;html=1;rounded=0;strokeColor=#000000;" edge="1" parent="1" source="wkgdSi7BzmKG_JM9T2ZL-59" target="wkgdSi7BzmKG_JM9T2ZL-45">
          <mxGeometry width="50" height="50" relative="1" as="geometry">
            <mxPoint x="513.1800000000001" y="447" as="sourcePoint" />
            <mxPoint x="518.1800000000001" y="391" as="targetPoint" />
          </mxGeometry>
        </mxCell>
        <mxCell id="wkgdSi7BzmKG_JM9T2ZL-59" value="" style="ellipse;whiteSpace=wrap;html=1;aspect=fixed;strokeColor=#000000;fillColor=#000000;" vertex="1" parent="1">
          <mxGeometry x="533.18" y="362" width="20" height="20" as="geometry" />
        </mxCell>
        <mxCell id="wkgdSi7BzmKG_JM9T2ZL-60" value="" style="endArrow=none;html=1;rounded=0;strokeColor=#000000;" edge="1" parent="1" source="wkgdSi7BzmKG_JM9T2ZL-61" target="wkgdSi7BzmKG_JM9T2ZL-45">
          <mxGeometry width="50" height="50" relative="1" as="geometry">
            <mxPoint x="593.1800000000001" y="370" as="sourcePoint" />
            <mxPoint x="549.1800000000001" y="348" as="targetPoint" />
          </mxGeometry>
        </mxCell>
        <mxCell id="wkgdSi7BzmKG_JM9T2ZL-61" value="E" style="ellipse;whiteSpace=wrap;html=1;aspect=fixed;strokeColor=#000000;fillColor=#000000;fontColor=#FFFFFF;" vertex="1" parent="1">
          <mxGeometry x="573.1800000000001" y="362" width="20" height="20" as="geometry" />
        </mxCell>
        <mxCell id="wkgdSi7BzmKG_JM9T2ZL-62" value="" style="endArrow=none;html=1;rounded=0;strokeColor=#000000;startArrow=none;startFill=0;endFill=0;" edge="1" parent="1" source="wkgdSi7BzmKG_JM9T2ZL-63" target="wkgdSi7BzmKG_JM9T2ZL-61">
          <mxGeometry width="50" height="50" relative="1" as="geometry">
            <mxPoint x="560.1800000000001" y="431" as="sourcePoint" />
            <mxPoint x="588.1800000000001" y="382" as="targetPoint" />
          </mxGeometry>
        </mxCell>
        <mxCell id="wkgdSi7BzmKG_JM9T2ZL-63" value="" style="ellipse;whiteSpace=wrap;html=1;aspect=fixed;strokeColor=#000000;" vertex="1" parent="1">
          <mxGeometry x="553.1800000000001" y="400" width="20" height="20" as="geometry" />
        </mxCell>
        <mxCell id="wkgdSi7BzmKG_JM9T2ZL-64" value="" style="endArrow=none;html=1;rounded=0;strokeColor=#000000;" edge="1" parent="1" source="wkgdSi7BzmKG_JM9T2ZL-65" target="wkgdSi7BzmKG_JM9T2ZL-61">
          <mxGeometry width="50" height="50" relative="1" as="geometry">
            <mxPoint x="593.1800000000001" y="438" as="sourcePoint" />
            <mxPoint x="598.1800000000001" y="382" as="targetPoint" />
          </mxGeometry>
        </mxCell>
        <mxCell id="wkgdSi7BzmKG_JM9T2ZL-65" value="" style="ellipse;whiteSpace=wrap;html=1;aspect=fixed;strokeColor=#000000;" vertex="1" parent="1">
          <mxGeometry x="593.18" y="400" width="20" height="20" as="geometry" />
        </mxCell>
        <mxCell id="wkgdSi7BzmKG_JM9T2ZL-66" value="" style="endArrow=none;html=1;rounded=0;strokeColor=#000000;startArrow=none;startFill=0;endFill=0;" edge="1" parent="1" source="wkgdSi7BzmKG_JM9T2ZL-67" target="wkgdSi7BzmKG_JM9T2ZL-49">
          <mxGeometry width="50" height="50" relative="1" as="geometry">
            <mxPoint x="400" y="400" as="sourcePoint" />
            <mxPoint x="566" y="389" as="targetPoint" />
          </mxGeometry>
        </mxCell>
        <mxCell id="wkgdSi7BzmKG_JM9T2ZL-67" value="" style="ellipse;whiteSpace=wrap;html=1;aspect=fixed;strokeColor=#000000;labelBackgroundColor=none;fillColor=#000000;" vertex="1" parent="1">
          <mxGeometry x="370" y="400" width="20" height="20" as="geometry" />
        </mxCell>
        <mxCell id="wkgdSi7BzmKG_JM9T2ZL-68" value="" style="endArrow=none;html=1;rounded=0;strokeColor=#000000;startArrow=none;startFill=0;endFill=0;" edge="1" parent="1" source="wkgdSi7BzmKG_JM9T2ZL-69" target="wkgdSi7BzmKG_JM9T2ZL-49">
          <mxGeometry width="50" height="50" relative="1" as="geometry">
            <mxPoint x="410" y="400" as="sourcePoint" />
            <mxPoint x="405" y="391" as="targetPoint" />
          </mxGeometry>
        </mxCell>
        <mxCell id="wkgdSi7BzmKG_JM9T2ZL-69" value="" style="ellipse;whiteSpace=wrap;html=1;aspect=fixed;strokeColor=#000000;fillColor=#000000;" vertex="1" parent="1">
          <mxGeometry x="410" y="400" width="20" height="20" as="geometry" />
        </mxCell>
        <mxCell id="wkgdSi7BzmKG_JM9T2ZL-70" value="" style="endArrow=none;html=1;rounded=0;strokeColor=#000000;endFill=0;" edge="1" parent="1" source="wkgdSi7BzmKG_JM9T2ZL-71" target="wkgdSi7BzmKG_JM9T2ZL-47">
          <mxGeometry width="50" height="50" relative="1" as="geometry">
            <mxPoint x="480" y="402" as="sourcePoint" />
            <mxPoint x="495" y="358" as="targetPoint" />
          </mxGeometry>
        </mxCell>
        <mxCell id="wkgdSi7BzmKG_JM9T2ZL-71" value="" style="ellipse;whiteSpace=wrap;html=1;aspect=fixed;strokeColor=#000000;fillColor=#000000;" vertex="1" parent="1">
          <mxGeometry x="500" y="362" width="20" height="20" as="geometry" />
        </mxCell>
        <mxCell id="wkgdSi7BzmKG_JM9T2ZL-72" value="" style="endArrow=none;html=1;rounded=0;strokeColor=#000000;startArrow=none;startFill=0;endFill=0;" edge="1" parent="1" source="wkgdSi7BzmKG_JM9T2ZL-73" target="wkgdSi7BzmKG_JM9T2ZL-71">
          <mxGeometry width="50" height="50" relative="1" as="geometry">
            <mxPoint x="447" y="440" as="sourcePoint" />
            <mxPoint x="483" y="392" as="targetPoint" />
          </mxGeometry>
        </mxCell>
        <mxCell id="wkgdSi7BzmKG_JM9T2ZL-73" value="" style="ellipse;whiteSpace=wrap;html=1;aspect=fixed;strokeColor=#000000;fillColor=#000000;fontColor=#FFFFFF;" vertex="1" parent="1">
          <mxGeometry x="480" y="400" width="20" height="20" as="geometry" />
        </mxCell>
        <mxCell id="wkgdSi7BzmKG_JM9T2ZL-74" value="" style="endArrow=none;html=1;rounded=0;strokeColor=#000000;" edge="1" parent="1" source="wkgdSi7BzmKG_JM9T2ZL-75" target="wkgdSi7BzmKG_JM9T2ZL-71">
          <mxGeometry width="50" height="50" relative="1" as="geometry">
            <mxPoint x="480" y="447" as="sourcePoint" />
            <mxPoint x="490" y="395" as="targetPoint" />
          </mxGeometry>
        </mxCell>
        <mxCell id="wkgdSi7BzmKG_JM9T2ZL-75" value="&lt;font color=&quot;#ffffff&quot;&gt;E&lt;/font&gt;" style="ellipse;whiteSpace=wrap;html=1;aspect=fixed;strokeColor=#000000;fillColor=#0A0A0A;" vertex="1" parent="1">
          <mxGeometry x="520" y="400" width="20" height="20" as="geometry" />
        </mxCell>
        <mxCell id="wkgdSi7BzmKG_JM9T2ZL-77" value="(b)" style="text;strokeColor=none;fillColor=none;align=left;verticalAlign=middle;spacingLeft=4;spacingRight=4;overflow=hidden;points=[[0,0.5],[1,0.5]];portConstraint=eastwest;rotatable=0;whiteSpace=wrap;html=1;" vertex="1" parent="1">
          <mxGeometry x="360" y="260" width="80" height="30" as="geometry" />
        </mxCell>
        <mxCell id="wkgdSi7BzmKG_JM9T2ZL-78" value="(a)" style="text;strokeColor=none;fillColor=none;align=left;verticalAlign=middle;spacingLeft=4;spacingRight=4;overflow=hidden;points=[[0,0.5],[1,0.5]];portConstraint=eastwest;rotatable=0;whiteSpace=wrap;html=1;" vertex="1" parent="1">
          <mxGeometry x="120" y="260" width="80" height="30" as="geometry" />
        </mxCell>
      </root>
    </mxGraphModel>
  </diagram>
</mxfile>
